<svg width="24" height="24" viewBox="0 0 24 24" fill="none" xmlns="http://www.w3.org/2000/svg">
<path d="M19.5485 6.47181H16.3925V5.17767C16.3925 2.72585 14.4047 0.738037 11.9529 0.738037C9.50094 0.738037 7.51312 2.72585 7.51312 5.17767V6.47181H4.09647C3.81442 6.47261 3.5857 6.70101 3.5849 6.98338V20.6806C3.58554 22.0929 4.73024 23.2376 6.14243 23.2381H17.5075C18.9198 23.2376 20.0645 22.0929 20.0648 20.6806V6.98338C20.0616 6.70005 19.8315 6.47229 19.5485 6.47181ZM8.53098 5.17255C8.53098 3.28563 10.0609 1.75573 11.9476 1.75573C13.8349 1.75573 15.3644 3.28563 15.3644 5.17255V6.46668H8.53098V5.17255ZM19.0369 20.6806C19.0343 21.5272 18.3488 22.2127 17.5025 22.2151H6.13746C5.29082 22.2127 4.60532 21.5272 4.60291 20.6806V7.49479H7.508V9.57646C7.508 9.85899 7.73719 10.088 8.01941 10.088C8.30194 10.088 8.53098 9.85899 8.53098 9.57646V7.49479H15.3696V9.57646C15.3696 9.85899 15.5986 10.088 15.8811 10.088C16.1633 10.088 16.3925 9.85899 16.3925 9.57646V7.49479H19.0369V20.6806Z" fill="black"/>
</svg>
