<svg width="20" height="21" viewBox="0 0 20 21" fill="none" xmlns="http://www.w3.org/2000/svg">
<g id="delete (1) 1" clip-path="url(#clip0_291_9)">
<path id="Vector" d="M12.7584 7.49609C12.4997 7.49609 12.29 7.70577 12.29 7.96448V16.8169C12.29 17.0755 12.4997 17.2853 12.7584 17.2853C13.0171 17.2853 13.2268 17.0755 13.2268 16.8169V7.96448C13.2268 7.70577 13.0171 7.49609 12.7584 7.49609Z" fill="black"/>
<path id="Vector_2" d="M7.23206 7.49609C6.97335 7.49609 6.76367 7.70577 6.76367 7.96448V16.8169C6.76367 17.0755 6.97335 17.2853 7.23206 17.2853C7.49076 17.2853 7.70044 17.0755 7.70044 16.8169V7.96448C7.70044 7.70577 7.49076 7.49609 7.23206 7.49609Z" fill="black"/>
<path id="Vector_3" d="M3.20333 6.20395V17.7439C3.20333 18.426 3.45344 19.0665 3.89035 19.5261C4.32525 19.987 4.93049 20.2487 5.56391 20.2498H14.4259C15.0594 20.2487 15.6647 19.987 16.0994 19.5261C16.5363 19.0665 16.7864 18.426 16.7864 17.7439V6.20395C17.6549 5.97342 18.2177 5.13435 18.1016 4.24315C17.9852 3.35212 17.2261 2.68559 16.3274 2.68541H13.9293V2.09993C13.932 1.60758 13.7374 1.1348 13.3888 0.786994C13.0403 0.439366 12.5668 0.245792 12.0744 0.249817H7.91533C7.42298 0.245792 6.94948 0.439366 6.60093 0.786994C6.25239 1.1348 6.05772 1.60758 6.06046 2.09993V2.68541H3.66238C2.76367 2.68559 2.00456 3.35212 1.8882 4.24315C1.77202 5.13435 2.33481 5.97342 3.20333 6.20395ZM14.4259 19.313H5.56391C4.76308 19.313 4.14009 18.6251 4.14009 17.7439V6.24512H15.8497V17.7439C15.8497 18.6251 15.2267 19.313 14.4259 19.313ZM6.99723 2.09993C6.99412 1.85604 7.08999 1.6213 7.26307 1.44913C7.43597 1.27697 7.67126 1.18237 7.91533 1.18658H12.0744C12.3185 1.18237 12.5538 1.27697 12.7267 1.44913C12.8998 1.62112 12.9956 1.85604 12.9925 2.09993V2.68541H6.99723V2.09993ZM3.66238 3.62217H16.3274C16.793 3.62217 17.1705 3.99962 17.1705 4.46526C17.1705 4.9309 16.793 5.30835 16.3274 5.30835H3.66238C3.19674 5.30835 2.81929 4.9309 2.81929 4.46526C2.81929 3.99962 3.19674 3.62217 3.66238 3.62217Z" fill="black"/>
<path id="Vector_4" d="M9.99523 7.49609C9.73653 7.49609 9.52686 7.70577 9.52686 7.96448V16.8169C9.52686 17.0755 9.73653 17.2853 9.99523 17.2853C10.2539 17.2853 10.4636 17.0755 10.4636 16.8169V7.96448C10.4636 7.70577 10.2539 7.49609 9.99523 7.49609Z" fill="black"/>
</g>
<defs>
<clipPath id="clip0_291_9">
<rect width="20" height="20" fill="white" transform="translate(0 0.25)"/>
</clipPath>
</defs>
</svg>
