<svg width="24" height="24" viewBox="0 0 24 24" fill="none" xmlns="http://www.w3.org/2000/svg">
<g clip-path="url(#clip0_114_19)">
<path d="M12.0008 22.4243C11.8952 22.4243 11.794 22.3823 11.7193 22.3076L1.86445 12.4528C-0.623101 9.96288 -0.62126 5.92786 1.86863 3.44026C3.06306 2.24693 4.68224 1.57635 6.37061 1.5758C8.06116 1.57083 9.68314 2.24409 10.8732 3.44484L12.0008 4.57247L13.1288 3.44444C15.611 0.956838 19.6397 0.952408 22.1273 3.43454C22.1306 3.43782 22.1339 3.44116 22.1372 3.44444C24.621 5.93359 24.621 9.96362 22.1372 12.4528L12.2823 22.3076C12.2077 22.3823 12.1064 22.4242 12.0008 22.4243ZM6.37061 2.37215C3.29082 2.37459 0.796147 4.8732 0.798536 7.95299C0.799681 9.42887 1.3859 10.8441 2.42867 11.8886L12.0008 21.4631L21.5742 11.8898C23.7501 9.71024 23.7473 6.17941 21.5678 4.00348C20.5233 2.96071 19.1081 2.37454 17.6322 2.37335C16.1535 2.36897 14.7347 2.95787 13.6939 4.00826L12.2835 5.4182C12.128 5.57364 11.876 5.57364 11.7205 5.4182L10.311 4.00866C9.26973 2.95742 7.85023 2.36787 6.37061 2.37215Z" fill="#111111"/>
</g>
<defs>
<clipPath id="clip0_114_19">
<rect width="24" height="24" fill="white"/>
</clipPath>
</defs>
</svg>
