<svg width="61" height="42" viewBox="0 0 61 42" fill="none" xmlns="http://www.w3.org/2000/svg">
<path d="M57.7634 30.9582C57.6979 30.9146 57.5281 30.8769 57.4577 30.8455L31.9495 19.5706V15.9073C36.8015 15.3237 39.1972 12.1227 39.1972 8.00705C39.1972 3.44984 35.99 0.012207 31.6693 0.012207C27.1327 0.012207 23.3262 3.75187 23.3262 8.17931C23.3262 8.94104 23.957 9.55969 24.7188 9.55969C24.9456 9.55969 25.1567 9.49183 25.3447 9.39593C25.791 9.16658 26.1088 8.71538 26.1088 8.17931C26.1088 5.29956 28.7313 2.77297 31.7177 2.77297C34.5088 2.77297 36.5357 4.97457 36.5357 8.00705C36.5357 10.9909 34.1242 13.2411 30.837 13.2411C30.0753 13.2411 29.5233 13.8598 29.5233 14.6215V17.3192V20.0278C29.5233 20.0545 29.4699 20.0764 29.4725 20.1031L5.01721 31.6619C1.41099 32.9611 0.176104 35.9171 0.570354 38.1732C0.975513 40.4937 2.94296 41.9881 5.4915 41.9881H54.0637C57.0805 41.9881 59.447 40.427 60.2392 37.8094C61.0215 35.2306 60.0026 32.4504 57.7634 30.9582ZM57.5971 37.1774C57.1593 38.627 55.8711 39.5622 54.0649 39.5622H5.4915C4.25788 39.5622 3.44871 38.878 3.27162 37.8665C3.07031 36.7117 3.81264 35.0717 6.04088 34.2614L31.3514 22.2636L56.321 33.382C57.4941 34.2201 58.0182 35.7873 57.5971 37.1774Z" fill="black"/>
</svg>
