<svg width="20" height="20" viewBox="0 0 20 20" fill="none" xmlns="http://www.w3.org/2000/svg">
<g clip-path="url(#clip0_300_143)">
<path d="M0.12207 9.70533L6.37207 3.45533C6.53484 3.29256 6.79852 3.29256 6.96125 3.45533C7.12402 3.61811 7.12402 3.88178 6.96125 4.04451L1.4225 9.58326H19.5833C19.8136 9.58326 20 9.76963 20 9.99994C20 10.2303 19.8136 10.4166 19.5833 10.4166H1.4225L6.96125 15.9553C7.12402 16.1181 7.12402 16.3818 6.96125 16.5445C6.87988 16.6259 6.77324 16.6666 6.66664 16.6666C6.56004 16.6666 6.45344 16.6259 6.37203 16.5445L0.12203 10.2945C-0.0407028 10.1318 -0.0407028 9.8681 0.12207 9.70533Z" fill="black"/>
</g>
<defs>
<clipPath id="clip0_300_143">
<rect width="20" height="20" fill="white" transform="matrix(-1 0 0 1 20 0)"/>
</clipPath>
</defs>
</svg>
