<svg width="18" height="18" viewBox="0 0 18 18" fill="none" xmlns="http://www.w3.org/2000/svg">
<path d="M17.6896 14.8966H0.310359C0.138972 14.8966 0 14.7577 0 14.5863V3.41387C0 3.24249 0.138972 3.10352 0.310359 3.10352H17.6896C17.861 3.10352 18 3.24249 18 3.41387V14.5863C18 14.7577 17.861 14.8966 17.6896 14.8966Z" fill="#F5F5F5"/>
<path d="M18 4.01072H0V3.41387C0 3.24249 0.138972 3.10352 0.310359 3.10352H17.6896C17.861 3.10352 18 3.24249 18 3.41387L18 4.01072Z" fill="#FF4B55"/>
<path d="M18 6.73218H0V7.63935H18V6.73218Z" fill="#FF4B55"/>
<path d="M18 4.91772H0V5.82489H18V4.91772Z" fill="#FF4B55"/>
<path d="M18 9.45358H0.310359C0.138972 9.45358 0 9.31461 0 9.14323V8.54639H18V9.45358Z" fill="#FF4B55"/>
<path d="M18 12.1755H0V13.0827H18V12.1755Z" fill="#FF4B55"/>
<path d="M17.6896 14.8967H0.310359C0.138972 14.8967 0 14.7577 0 14.5863V13.9895H18V14.5863C18 14.7577 17.861 14.8967 17.6896 14.8967Z" fill="#FF4B55"/>
<path d="M18 10.3608H0V11.268H18V10.3608Z" fill="#FF4B55"/>
<path d="M8.06894 3.10352H0.310359C0.138972 3.10352 0 3.24245 0 3.41384V9.14324C0 9.31463 0.138972 9.4536 0.310359 9.4536H8.06898C8.24036 9.4536 8.37934 9.31463 8.37934 9.14324V3.41384C8.3793 3.24245 8.24033 3.10352 8.06894 3.10352Z" fill="#41479B"/>
<path d="M0.871394 3.81591L0.940089 4.02192L1.15725 4.02357C1.18537 4.02382 1.19701 4.05968 1.1744 4.07638L0.999714 4.2054L1.06524 4.41244C1.07375 4.43922 1.0432 4.46144 1.02032 4.44506L0.843656 4.31881L0.666996 4.4451C0.64411 4.46144 0.613629 4.43926 0.622067 4.41247L0.687598 4.20544L0.512907 4.07641C0.490302 4.05968 0.501938 4.02385 0.530063 4.02361L0.747223 4.02196L0.815918 3.81594C0.824777 3.78922 0.862464 3.78922 0.871394 3.81591Z" fill="#F5F5F5"/>
<path d="M0.871394 4.89352L0.940089 5.09953L1.15725 5.10118C1.18537 5.10143 1.19701 5.13729 1.1744 5.15399L0.999714 5.28301L1.06524 5.49005C1.07375 5.51683 1.0432 5.53905 1.02032 5.52267L0.843656 5.39642L0.666996 5.52271C0.64411 5.53905 0.613629 5.51687 0.622067 5.49008L0.687598 5.28305L0.512907 5.15402C0.490302 5.13729 0.501938 5.10147 0.530063 5.10122L0.747223 5.09957L0.815918 4.89355C0.824777 4.86687 0.862464 4.86687 0.871394 4.89352Z" fill="#F5F5F5"/>
<path d="M0.871394 5.97115L0.940089 6.17717L1.15725 6.17882C1.18537 6.17907 1.19701 6.21493 1.1744 6.23163L0.999714 6.36065L1.06524 6.56769C1.07375 6.59448 1.0432 6.6167 1.02032 6.60031L0.843656 6.47407L0.666996 6.60035C0.64411 6.6167 0.613629 6.59451 0.622067 6.56772L0.687598 6.36069L0.512907 6.23166C0.490302 6.21493 0.501938 6.1791 0.530063 6.17886L0.747223 6.17721L0.815918 5.97119C0.824777 5.94451 0.862464 5.94451 0.871394 5.97115Z" fill="#F5F5F5"/>
<path d="M0.871394 7.04882L0.940089 7.25483L1.15725 7.25648C1.18537 7.25673 1.19701 7.29259 1.1744 7.30929L0.999714 7.43831L1.06524 7.64535C1.07375 7.67214 1.0432 7.69436 1.02032 7.67797L0.843656 7.55173L0.666996 7.67801C0.64411 7.69436 0.613629 7.67217 0.622067 7.64538L0.687598 7.43835L0.512907 7.30932C0.490302 7.29259 0.501938 7.25677 0.530063 7.25652L0.747223 7.25487L0.815918 7.04885C0.824777 7.02213 0.862464 7.02213 0.871394 7.04882Z" fill="#F5F5F5"/>
<path d="M0.871394 8.12648L0.940089 8.3325L1.15725 8.33415C1.18537 8.3344 1.19701 8.37026 1.1744 8.38696L0.999714 8.51598L1.06524 8.72302C1.07375 8.74981 1.0432 8.77203 1.02032 8.75564L0.843656 8.6294L0.666996 8.75568C0.64411 8.77203 0.613629 8.74984 0.622067 8.72305L0.687598 8.51602L0.512907 8.38699C0.490302 8.37026 0.501938 8.33443 0.530063 8.33419L0.747223 8.33253L0.815918 8.12652C0.824777 8.09976 0.862464 8.09976 0.871394 8.12648Z" fill="#F5F5F5"/>
<path d="M1.70782 4.34396L1.77651 4.54998L1.99367 4.55163C2.0218 4.55187 2.03344 4.58773 2.01083 4.60443L1.83614 4.73346L1.90167 4.94049C1.91018 4.96728 1.87963 4.9895 1.85674 4.97312L1.68008 4.84684L1.50342 4.97312C1.48054 4.98946 1.45006 4.96728 1.45849 4.94049L1.52402 4.73346L1.34933 4.60443C1.32673 4.5877 1.33836 4.55187 1.36649 4.55163L1.58365 4.54998L1.65234 4.34396C1.66117 4.31731 1.69893 4.31731 1.70782 4.34396Z" fill="#F5F5F5"/>
<path d="M1.70782 5.42162L1.77651 5.62764L1.99367 5.62929C2.0218 5.62953 2.03344 5.66539 2.01083 5.68209L1.83614 5.81111L1.90167 6.01815C1.91018 6.04493 1.87963 6.06715 1.85674 6.05077L1.68008 5.92449L1.50342 6.05077C1.48054 6.06712 1.45006 6.04497 1.45849 6.01815L1.52402 5.81111L1.34933 5.68209C1.32673 5.66536 1.33836 5.62953 1.36649 5.62929L1.58365 5.62764L1.65234 5.42162C1.66117 5.39494 1.69893 5.39494 1.70782 5.42162Z" fill="#F5F5F5"/>
<path d="M1.70782 6.4995L1.77651 6.70552L1.99367 6.70717C2.0218 6.70742 2.03344 6.74328 2.01083 6.75998L1.83614 6.889L1.90167 7.09603C1.91018 7.12282 1.87963 7.14504 1.85674 7.12866L1.68008 7.00238L1.50342 7.12866C1.48054 7.14501 1.45006 7.12282 1.45849 7.09603L1.52402 6.889L1.34933 6.75998C1.32673 6.74324 1.33836 6.70742 1.36649 6.70717L1.58365 6.70552L1.65234 6.4995C1.66117 6.47282 1.69893 6.47282 1.70782 6.4995Z" fill="#F5F5F5"/>
<path d="M1.70782 7.57712L1.77651 7.78313L1.99367 7.78478C2.0218 7.78503 2.03344 7.82089 2.01083 7.83759L1.83614 7.96661L1.90167 8.17365C1.91018 8.20043 1.87963 8.22265 1.85674 8.20627L1.68008 8.07999L1.50342 8.20627C1.48054 8.22262 1.45006 8.20043 1.45849 8.17365L1.52402 7.96661L1.34933 7.83759C1.32673 7.82085 1.33836 7.78503 1.36649 7.78478L1.58365 7.78313L1.65234 7.57712C1.66117 7.55047 1.69893 7.55047 1.70782 7.57712Z" fill="#F5F5F5"/>
<path d="M2.54425 3.81567L2.61294 4.02168L2.8301 4.02333C2.85823 4.02358 2.86987 4.05944 2.84726 4.07614L2.67257 4.20516L2.7381 4.41219C2.74661 4.43898 2.71606 4.4612 2.69317 4.44482L2.51651 4.31854L2.33985 4.44482C2.31696 4.46117 2.28648 4.43898 2.29492 4.41219L2.36045 4.20516L2.18576 4.07614C2.16315 4.0594 2.17479 4.02358 2.20292 4.02333L2.42008 4.02168L2.48877 3.81567C2.49763 3.78898 2.53535 3.78898 2.54425 3.81567Z" fill="#F5F5F5"/>
<path d="M2.54425 4.89328L2.61294 5.09929L2.8301 5.10094C2.85823 5.10119 2.86987 5.13705 2.84726 5.15375L2.67257 5.28277L2.7381 5.48981C2.74661 5.5166 2.71606 5.53882 2.69317 5.52243L2.51651 5.39615L2.33985 5.52243C2.31696 5.53878 2.28648 5.5166 2.29492 5.48981L2.36045 5.28277L2.18576 5.15375C2.16315 5.13702 2.17479 5.10119 2.20292 5.10094L2.42008 5.09929L2.48877 4.89328C2.49763 4.86663 2.53535 4.86663 2.54425 4.89328Z" fill="#F5F5F5"/>
<path d="M2.54425 5.97091L2.61294 6.17693L2.8301 6.17859C2.85823 6.17883 2.86987 6.21469 2.84726 6.23139L2.67257 6.36042L2.7381 6.56745C2.74661 6.59424 2.71606 6.61646 2.69317 6.60008L2.51651 6.4738L2.33985 6.60008C2.31696 6.61643 2.28648 6.59424 2.29492 6.56745L2.36045 6.36042L2.18576 6.23139C2.16315 6.21466 2.17479 6.17883 2.20292 6.17859L2.42008 6.17693L2.48877 5.97091C2.49763 5.94427 2.53535 5.94427 2.54425 5.97091Z" fill="#F5F5F5"/>
<path d="M2.54425 7.04882L2.61294 7.25484L2.8301 7.25649C2.85823 7.25673 2.86987 7.29259 2.84726 7.30929L2.67257 7.43832L2.7381 7.64535C2.74661 7.67214 2.71606 7.69436 2.69317 7.67798L2.51651 7.55169L2.33985 7.67798C2.31696 7.69432 2.28648 7.67214 2.29492 7.64535L2.36045 7.43832L2.18576 7.30929C2.16315 7.29256 2.17479 7.25673 2.20292 7.25649L2.42008 7.25484L2.48877 7.04882C2.49763 7.02214 2.53535 7.02214 2.54425 7.04882Z" fill="#F5F5F5"/>
<path d="M2.54425 8.12648L2.61294 8.3325L2.8301 8.33415C2.85823 8.3344 2.86987 8.37026 2.84726 8.38696L2.67257 8.51598L2.7381 8.72302C2.74661 8.74981 2.71606 8.77203 2.69317 8.75565L2.51651 8.62936L2.33985 8.75565C2.31696 8.77199 2.28648 8.74981 2.29492 8.72302L2.36045 8.51598L2.18576 8.38696C2.16315 8.37022 2.17479 8.3344 2.20292 8.33415L2.42008 8.3325L2.48877 8.12648C2.49763 8.09977 2.53535 8.09977 2.54425 8.12648Z" fill="#F5F5F5"/>
<path d="M3.38067 4.34396L3.44937 4.54998L3.66653 4.55163C3.69465 4.55187 3.70629 4.58773 3.68368 4.60443L3.50899 4.73346L3.57452 4.94049C3.58303 4.96728 3.55248 4.9895 3.52959 4.97312L3.35293 4.84684L3.17627 4.97312C3.15339 4.98946 3.12291 4.96728 3.13134 4.94049L3.19688 4.73346L3.02218 4.60443C2.99958 4.5877 3.01122 4.55187 3.03934 4.55163L3.2565 4.54998L3.3252 4.34396C3.33402 4.31731 3.37178 4.31731 3.38067 4.34396Z" fill="#F5F5F5"/>
<path d="M3.38067 5.42162L3.44937 5.62764L3.66653 5.62929C3.69465 5.62953 3.70629 5.66539 3.68368 5.68209L3.50899 5.81111L3.57452 6.01815C3.58303 6.04493 3.55248 6.06715 3.52959 6.05077L3.35293 5.92449L3.17627 6.05077C3.15339 6.06712 3.12291 6.04497 3.13134 6.01815L3.19688 5.81111L3.02218 5.68209C2.99958 5.66536 3.01122 5.62953 3.03934 5.62929L3.2565 5.62764L3.3252 5.42162C3.33402 5.39494 3.37178 5.39494 3.38067 5.42162Z" fill="#F5F5F5"/>
<path d="M3.38067 6.4995L3.44937 6.70552L3.66653 6.70717C3.69465 6.70742 3.70629 6.74328 3.68368 6.75998L3.50899 6.889L3.57452 7.09603C3.58303 7.12282 3.55248 7.14504 3.52959 7.12866L3.35293 7.00238L3.17627 7.12866C3.15339 7.14501 3.12291 7.12282 3.13134 7.09603L3.19688 6.889L3.02218 6.75998C2.99958 6.74324 3.01122 6.70742 3.03934 6.70717L3.2565 6.70552L3.3252 6.4995C3.33402 6.47282 3.37178 6.47282 3.38067 6.4995Z" fill="#F5F5F5"/>
<path d="M3.38067 7.57712L3.44937 7.78313L3.66653 7.78478C3.69465 7.78503 3.70629 7.82089 3.68368 7.83759L3.50899 7.96661L3.57452 8.17365C3.58303 8.20043 3.55248 8.22265 3.52959 8.20627L3.35293 8.07999L3.17627 8.20627C3.15339 8.22262 3.12291 8.20043 3.13134 8.17365L3.19688 7.96661L3.02218 7.83759C2.99958 7.82085 3.01122 7.78503 3.03934 7.78478L3.2565 7.78313L3.3252 7.57712C3.33402 7.55047 3.37178 7.55047 3.38067 7.57712Z" fill="#F5F5F5"/>
<path d="M4.21762 3.81567L4.28632 4.02168L4.50348 4.02333C4.5316 4.02358 4.54324 4.05944 4.52063 4.07614L4.34594 4.20516L4.41147 4.41219C4.41998 4.43898 4.38943 4.4612 4.36654 4.44482L4.18985 4.31854L4.01319 4.44482C3.9903 4.46117 3.95982 4.43898 3.96826 4.41219L4.03379 4.20516L3.8591 4.07614C3.83649 4.0594 3.84813 4.02358 3.87625 4.02333L4.09341 4.02168L4.16211 3.81567C4.171 3.78898 4.20873 3.78898 4.21762 3.81567Z" fill="#F5F5F5"/>
<path d="M4.21762 4.89328L4.28632 5.09929L4.50348 5.10094C4.5316 5.10119 4.54324 5.13705 4.52063 5.15375L4.34594 5.28277L4.41147 5.48981C4.41998 5.5166 4.38943 5.53882 4.36654 5.52243L4.18985 5.39615L4.01319 5.52243C3.9903 5.53878 3.95982 5.5166 3.96826 5.48981L4.03379 5.28277L3.8591 5.15375C3.83649 5.13702 3.84813 5.10119 3.87625 5.10094L4.09341 5.09929L4.16211 4.89328C4.171 4.86663 4.20873 4.86663 4.21762 4.89328Z" fill="#F5F5F5"/>
<path d="M4.21762 5.97091L4.28632 6.17693L4.50348 6.17859C4.5316 6.17883 4.54324 6.21469 4.52063 6.23139L4.34594 6.36042L4.41147 6.56745C4.41998 6.59424 4.38943 6.61646 4.36654 6.60008L4.18985 6.4738L4.01319 6.60008C3.9903 6.61643 3.95982 6.59424 3.96826 6.56745L4.03379 6.36042L3.8591 6.23139C3.83649 6.21466 3.84813 6.17883 3.87625 6.17859L4.09341 6.17693L4.16211 5.97091C4.171 5.94427 4.20873 5.94427 4.21762 5.97091Z" fill="#F5F5F5"/>
<path d="M4.21762 7.04882L4.28632 7.25484L4.50348 7.25649C4.5316 7.25673 4.54324 7.29259 4.52063 7.30929L4.34594 7.43832L4.41147 7.64535C4.41998 7.67214 4.38943 7.69436 4.36654 7.67798L4.18985 7.55169L4.01319 7.67798C3.9903 7.69432 3.95982 7.67214 3.96826 7.64535L4.03379 7.43832L3.8591 7.30929C3.83649 7.29256 3.84813 7.25673 3.87625 7.25649L4.09341 7.25484L4.16211 7.04882C4.171 7.02214 4.20873 7.02214 4.21762 7.04882Z" fill="#F5F5F5"/>
<path d="M4.21762 8.12648L4.28632 8.3325L4.50348 8.33415C4.5316 8.3344 4.54324 8.37026 4.52063 8.38696L4.34594 8.51598L4.41147 8.72302C4.41998 8.74981 4.38943 8.77203 4.36654 8.75565L4.18985 8.62936L4.01319 8.75565C3.9903 8.77199 3.95982 8.74981 3.96826 8.72302L4.03379 8.51598L3.8591 8.38696C3.83649 8.37022 3.84813 8.3344 3.87625 8.33415L4.09341 8.3325L4.16211 8.12648C4.171 8.09977 4.20873 8.09977 4.21762 8.12648Z" fill="#F5F5F5"/>
<path d="M5.05401 4.34396L5.12271 4.54998L5.33987 4.55163C5.368 4.55187 5.37963 4.58773 5.35703 4.60443L5.18234 4.73346L5.24787 4.94049C5.25637 4.96728 5.22582 4.9895 5.20294 4.97312L5.02628 4.84684L4.84961 4.97312C4.82673 4.98946 4.79625 4.96728 4.80468 4.94049L4.87022 4.73346L4.69552 4.60443C4.67292 4.5877 4.68456 4.55187 4.71268 4.55163L4.92984 4.54998L4.99854 4.34396C5.00743 4.31731 5.04512 4.31731 5.05401 4.34396Z" fill="#F5F5F5"/>
<path d="M5.05401 5.42162L5.12271 5.62764L5.33987 5.62929C5.368 5.62953 5.37963 5.66539 5.35703 5.68209L5.18234 5.81111L5.24787 6.01815C5.25637 6.04493 5.22582 6.06715 5.20294 6.05077L5.02628 5.92449L4.84961 6.05077C4.82673 6.06712 4.79625 6.04497 4.80468 6.01815L4.87022 5.81111L4.69552 5.68209C4.67292 5.66536 4.68456 5.62953 4.71268 5.62929L4.92984 5.62764L4.99854 5.42162C5.00743 5.39494 5.04512 5.39494 5.05401 5.42162Z" fill="#F5F5F5"/>
<path d="M5.05401 6.4995L5.12271 6.70552L5.33987 6.70717C5.368 6.70742 5.37963 6.74328 5.35703 6.75998L5.18234 6.889L5.24787 7.09603C5.25637 7.12282 5.22582 7.14504 5.20294 7.12866L5.02628 7.00238L4.84961 7.12866C4.82673 7.14501 4.79625 7.12282 4.80468 7.09603L4.87022 6.889L4.69552 6.75998C4.67292 6.74324 4.68456 6.70742 4.71268 6.70717L4.92984 6.70552L4.99854 6.4995C5.00743 6.47282 5.04512 6.47282 5.05401 6.4995Z" fill="#F5F5F5"/>
<path d="M5.05401 7.57712L5.12271 7.78313L5.33987 7.78478C5.368 7.78503 5.37963 7.82089 5.35703 7.83759L5.18234 7.96661L5.24787 8.17365C5.25637 8.20043 5.22582 8.22265 5.20294 8.20627L5.02628 8.07999L4.84961 8.20627C4.82673 8.22262 4.79625 8.20043 4.80468 8.17365L4.87022 7.96661L4.69552 7.83759C4.67292 7.82085 4.68456 7.78503 4.71268 7.78478L4.92984 7.78313L4.99854 7.57712C5.00743 7.55047 5.04512 7.55047 5.05401 7.57712Z" fill="#F5F5F5"/>
<path d="M5.88995 3.81567L5.95865 4.02168L6.17581 4.02333C6.20393 4.02358 6.21557 4.05944 6.19297 4.07614L6.01827 4.20516L6.08381 4.41219C6.09231 4.43898 6.06176 4.4612 6.03888 4.44482L5.86221 4.31854L5.68555 4.44482C5.66267 4.46117 5.63219 4.43898 5.64062 4.41219L5.70615 4.20516L5.53146 4.07614C5.50886 4.0594 5.52049 4.02358 5.54862 4.02333L5.76578 4.02168L5.83448 3.81567C5.8433 3.78898 5.88106 3.78898 5.88995 3.81567Z" fill="#F5F5F5"/>
<path d="M5.88995 4.89328L5.95865 5.09929L6.17581 5.10094C6.20393 5.10119 6.21557 5.13705 6.19297 5.15375L6.01827 5.28277L6.08381 5.48981C6.09231 5.5166 6.06176 5.53882 6.03888 5.52243L5.86221 5.39615L5.68555 5.52243C5.66267 5.53878 5.63219 5.5166 5.64062 5.48981L5.70615 5.28277L5.53146 5.15375C5.50886 5.13702 5.52049 5.10119 5.54862 5.10094L5.76578 5.09929L5.83448 4.89328C5.8433 4.86663 5.88106 4.86663 5.88995 4.89328Z" fill="#F5F5F5"/>
<path d="M5.88995 5.97091L5.95865 6.17693L6.17581 6.17859C6.20393 6.17883 6.21557 6.21469 6.19297 6.23139L6.01827 6.36042L6.08381 6.56745C6.09231 6.59424 6.06176 6.61646 6.03888 6.60008L5.86221 6.4738L5.68555 6.60008C5.66267 6.61643 5.63219 6.59424 5.64062 6.56745L5.70615 6.36042L5.53146 6.23139C5.50886 6.21466 5.52049 6.17883 5.54862 6.17859L5.76578 6.17693L5.83448 5.97091C5.8433 5.94427 5.88106 5.94427 5.88995 5.97091Z" fill="#F5F5F5"/>
<path d="M5.88995 7.04882L5.95865 7.25484L6.17581 7.25649C6.20393 7.25673 6.21557 7.29259 6.19297 7.30929L6.01827 7.43832L6.08381 7.64535C6.09231 7.67214 6.06176 7.69436 6.03888 7.67798L5.86221 7.55169L5.68555 7.67798C5.66267 7.69432 5.63219 7.67214 5.64062 7.64535L5.70615 7.43832L5.53146 7.30929C5.50886 7.29256 5.52049 7.25673 5.54862 7.25649L5.76578 7.25484L5.83448 7.04882C5.8433 7.02214 5.88106 7.02214 5.88995 7.04882Z" fill="#F5F5F5"/>
<path d="M5.88995 8.12648L5.95865 8.3325L6.17581 8.33415C6.20393 8.3344 6.21557 8.37026 6.19297 8.38696L6.01827 8.51598L6.08381 8.72302C6.09231 8.74981 6.06176 8.77203 6.03888 8.75565L5.86221 8.62936L5.68555 8.75565C5.66267 8.77199 5.63219 8.74981 5.64062 8.72302L5.70615 8.51598L5.53146 8.38696C5.50886 8.37022 5.52049 8.3344 5.54862 8.33415L5.76578 8.3325L5.83448 8.12648C5.8433 8.09977 5.88106 8.09977 5.88995 8.12648Z" fill="#F5F5F5"/>
<path d="M6.72637 4.34396L6.79507 4.54998L7.01223 4.55163C7.04035 4.55187 7.05199 4.58773 7.02938 4.60443L6.85469 4.73346L6.92022 4.94049C6.92873 4.96728 6.89818 4.9895 6.8753 4.97312L6.69864 4.84684L6.52198 4.97312C6.49909 4.98946 6.46861 4.96728 6.47705 4.94049L6.54258 4.73346L6.36789 4.60443C6.34528 4.5877 6.35692 4.55187 6.38504 4.55163L6.6022 4.54998L6.6709 4.34396C6.67976 4.31731 6.71751 4.31731 6.72637 4.34396Z" fill="#F5F5F5"/>
<path d="M6.72637 5.42162L6.79507 5.62764L7.01223 5.62929C7.04035 5.62953 7.05199 5.66539 7.02938 5.68209L6.85469 5.81111L6.92022 6.01815C6.92873 6.04493 6.89818 6.06715 6.8753 6.05077L6.69864 5.92449L6.52198 6.05077C6.49909 6.06712 6.46861 6.04497 6.47705 6.01815L6.54258 5.81111L6.36789 5.68209C6.34528 5.66536 6.35692 5.62953 6.38504 5.62929L6.6022 5.62764L6.6709 5.42162C6.67976 5.39494 6.71751 5.39494 6.72637 5.42162Z" fill="#F5F5F5"/>
<path d="M6.72637 6.4995L6.79507 6.70552L7.01223 6.70717C7.04035 6.70742 7.05199 6.74328 7.02938 6.75998L6.85469 6.889L6.92022 7.09603C6.92873 7.12282 6.89818 7.14504 6.8753 7.12866L6.69864 7.00238L6.52198 7.12866C6.49909 7.14501 6.46861 7.12282 6.47705 7.09603L6.54258 6.889L6.36789 6.75998C6.34528 6.74324 6.35692 6.70742 6.38504 6.70717L6.6022 6.70552L6.6709 6.4995C6.67976 6.47282 6.71751 6.47282 6.72637 6.4995Z" fill="#F5F5F5"/>
<path d="M6.72637 7.57712L6.79507 7.78313L7.01223 7.78478C7.04035 7.78503 7.05199 7.82089 7.02938 7.83759L6.85469 7.96661L6.92022 8.17365C6.92873 8.20043 6.89818 8.22265 6.8753 8.20627L6.69864 8.07999L6.52198 8.20627C6.49909 8.22262 6.46861 8.20043 6.47705 8.17365L6.54258 7.96661L6.36789 7.83759C6.34528 7.82085 6.35692 7.78503 6.38504 7.78478L6.6022 7.78313L6.6709 7.57712C6.67976 7.55047 6.71751 7.55047 6.72637 7.57712Z" fill="#F5F5F5"/>
<path d="M7.56329 3.81567L7.63199 4.02168L7.84915 4.02333C7.87727 4.02358 7.88891 4.05944 7.8663 4.07614L7.69161 4.20516L7.75714 4.41219C7.76565 4.43898 7.7351 4.4612 7.71221 4.44482L7.53555 4.31854L7.35889 4.44482C7.33601 4.46117 7.30552 4.43898 7.31396 4.41219L7.37949 4.20516L7.2048 4.07614C7.1822 4.0594 7.19383 4.02358 7.22196 4.02333L7.43912 4.02168L7.50781 3.81567C7.51667 3.78898 7.55436 3.78898 7.56329 3.81567Z" fill="#F5F5F5"/>
<path d="M7.56329 4.89328L7.63199 5.09929L7.84915 5.10094C7.87727 5.10119 7.88891 5.13705 7.8663 5.15375L7.69161 5.28277L7.75714 5.48981C7.76565 5.5166 7.7351 5.53882 7.71221 5.52243L7.53555 5.39615L7.35889 5.52243C7.33601 5.53878 7.30552 5.5166 7.31396 5.48981L7.37949 5.28277L7.2048 5.15375C7.1822 5.13702 7.19383 5.10119 7.22196 5.10094L7.43912 5.09929L7.50781 4.89328C7.51667 4.86663 7.55436 4.86663 7.56329 4.89328Z" fill="#F5F5F5"/>
<path d="M7.56329 5.97091L7.63199 6.17693L7.84915 6.17859C7.87727 6.17883 7.88891 6.21469 7.8663 6.23139L7.69161 6.36042L7.75714 6.56745C7.76565 6.59424 7.7351 6.61646 7.71221 6.60008L7.53555 6.4738L7.35889 6.60008C7.33601 6.61643 7.30552 6.59424 7.31396 6.56745L7.37949 6.36042L7.2048 6.23139C7.1822 6.21466 7.19383 6.17883 7.22196 6.17859L7.43912 6.17693L7.50781 5.97091C7.51667 5.94427 7.55436 5.94427 7.56329 5.97091Z" fill="#F5F5F5"/>
<path d="M7.56329 7.04882L7.63199 7.25484L7.84915 7.25649C7.87727 7.25673 7.88891 7.29259 7.8663 7.30929L7.69161 7.43832L7.75714 7.64535C7.76565 7.67214 7.7351 7.69436 7.71221 7.67798L7.53555 7.55169L7.35889 7.67798C7.33601 7.69432 7.30552 7.67214 7.31396 7.64535L7.37949 7.43832L7.2048 7.30929C7.1822 7.29256 7.19383 7.25673 7.22196 7.25649L7.43912 7.25484L7.50781 7.04882C7.51667 7.02214 7.55436 7.02214 7.56329 7.04882Z" fill="#F5F5F5"/>
<path d="M7.56329 8.12648L7.63199 8.3325L7.84915 8.33415C7.87727 8.3344 7.88891 8.37026 7.8663 8.38696L7.69161 8.51598L7.75714 8.72302C7.76565 8.74981 7.7351 8.77203 7.71221 8.75565L7.53555 8.62936L7.35889 8.75565C7.33601 8.77199 7.30552 8.74981 7.31396 8.72302L7.37949 8.51598L7.2048 8.38696C7.1822 8.37022 7.19383 8.3344 7.22196 8.33415L7.43912 8.3325L7.50781 8.12648C7.51667 8.09977 7.55436 8.09977 7.56329 8.12648Z" fill="#F5F5F5"/>
</svg>
