<svg width="30" height="30" viewBox="0 0 30 30" fill="none" xmlns="http://www.w3.org/2000/svg">
<g id="instagram 1" opacity="0.6" clip-path="url(#clip0_117_123)">
<g id="Group">
<path id="Vector" d="M14.9999 0C23.2837 0 30 6.71625 30 15.0001C30 23.2839 23.2838 30 15.0001 30C6.71635 30 0 23.2838 0 15.0001C0 6.71635 6.71532 0 14.9999 0Z" fill="white"/>
<path id="Vector_2" d="M20.1768 6.56055H9.82222C8.02316 6.56055 6.56064 8.02399 6.56064 9.82213V20.1778C6.56064 21.9768 8.02409 23.4394 9.82222 23.4394H20.1779C21.9769 23.4394 23.4395 21.9759 23.4395 20.1778V9.82213C23.4394 8.02399 21.9759 6.56055 20.1768 6.56055ZM21.2044 8.44776L21.5738 8.44683V11.2481L18.7519 11.2575L18.7425 8.4562L21.2044 8.44776ZM15 12.1761C17.341 12.1761 17.8238 14.3736 17.8238 15.0008C17.8238 16.5561 16.5563 17.8236 15 17.8236C13.4429 17.8236 12.1763 16.5561 12.1763 15.0008C12.1753 14.3736 12.6591 12.1761 15 12.1761ZM21.5897 19.9734C21.5897 20.865 20.8651 21.5906 19.9716 21.5906H9.99656C9.10404 21.5906 8.37844 20.8659 8.37844 19.9734V13.1212H10.7222C10.5047 13.6565 10.3818 14.3877 10.3818 15.0009C10.3818 17.5453 12.4518 19.6162 14.9972 19.6162C17.5425 19.6162 19.6115 17.5453 19.6115 15.0009C19.6115 14.3877 19.4886 13.6565 19.2721 13.1212H21.5877V19.9734H21.5897Z" fill="black"/>
</g>
</g>
<defs>
<clipPath id="clip0_117_123">
<rect width="30" height="30" fill="white"/>
</clipPath>
</defs>
</svg>
