<svg width="30" height="30" viewBox="0 0 30 30" fill="none" xmlns="http://www.w3.org/2000/svg">
<g id="youtube-logotype 1" opacity="0.6" clip-path="url(#clip0_117_74)">
<g id="Group">
<g id="Group_2">
<path id="Vector" d="M7.88008 16.107H9.06934V22.5437H10.1945V16.107H11.4058V15.0527H7.88008V16.107Z" fill="white"/>
<path id="Vector_2" d="M17.3935 16.8942C17.0216 16.8942 16.6745 17.0973 16.3482 17.4994V15.0527H15.337V22.544H16.3482V22.0032C16.6867 22.4209 17.0335 22.621 17.3935 22.621C17.7959 22.621 18.0666 22.4093 18.2016 21.9937C18.2694 21.7571 18.3041 21.3854 18.3041 20.8689V18.6463C18.3041 18.1178 18.2694 17.7489 18.2016 17.5246C18.0669 17.1059 17.7956 16.8942 17.3935 16.8942ZM17.2923 20.9481C17.2923 21.4526 17.1443 21.7012 16.8522 21.7012C16.6861 21.7012 16.517 21.6217 16.3479 21.4523V18.0506C16.517 17.8833 16.6861 17.8041 16.8522 17.8041C17.144 17.8041 17.2923 18.0626 17.2923 18.5659V20.9481Z" fill="white"/>
<path id="Vector_3" d="M13.4498 21.2276C13.2255 21.5446 13.0134 21.7008 12.8102 21.7008C12.6752 21.7008 12.5982 21.6214 12.5736 21.4642C12.5644 21.4317 12.5644 21.3083 12.5644 21.0714V16.9619H11.5528V21.3749C11.5528 21.7693 11.5869 22.0357 11.6421 22.2051C11.7437 22.4881 11.9684 22.6206 12.2937 22.6206C12.666 22.6206 13.0478 22.396 13.4498 21.935V22.5439H14.462V16.9619H13.4498V21.2276Z" fill="white"/>
<path id="Vector_4" d="M14.3181 11.8053C14.6474 11.8053 14.8054 11.5441 14.8054 11.0224V8.64967C14.8054 8.12762 14.6474 7.86768 14.3181 7.86768C13.9884 7.86768 13.8301 8.12793 13.8301 8.64967V11.0224C13.8301 11.5444 13.9884 11.8053 14.3181 11.8053Z" fill="white"/>
<path id="Vector_5" d="M15 0C6.7157 0 0 6.7157 0 15C0 23.2843 6.7157 30 15 30C23.2843 30 30 23.2843 30 15C30 6.7157 23.2843 0 15 0ZM16.6683 7.01586H17.6876V11.1689C17.6876 11.4086 17.6876 11.5329 17.6998 11.5663C17.7222 11.7247 17.8027 11.8057 17.9395 11.8057C18.1439 11.8057 18.3585 11.6474 18.5853 11.3273V7.01586H19.6073V12.6565H18.5853V12.0414C18.1783 12.5079 17.7904 12.7341 17.4175 12.7341C17.0885 12.7341 16.8614 12.6006 16.7589 12.3152C16.7024 12.1442 16.6683 11.8745 16.6683 11.4764V7.01586ZM12.8081 8.85514C12.8081 8.25207 12.9106 7.81136 13.1279 7.52624C13.4105 7.14046 13.8086 6.94772 14.3181 6.94772C14.83 6.94772 15.2277 7.14046 15.5104 7.52624C15.7246 7.81105 15.8271 8.25207 15.8271 8.85514V10.8304C15.8271 11.4301 15.7246 11.8748 15.5104 12.1568C15.2277 12.5417 14.83 12.7341 14.3181 12.7341C13.8086 12.7341 13.4105 12.5417 13.1279 12.1568C12.9106 11.8748 12.8081 11.4298 12.8081 10.8304V8.85514ZM10.0748 5.08726L10.8795 8.05964L11.6526 5.08726H12.7989L11.4353 9.5911V12.6568H10.3022V9.5911C10.1994 9.04788 9.97258 8.25207 9.6089 7.19632C9.37013 6.49381 9.12123 5.78916 8.88245 5.08726H10.0748ZM23.075 23.0366C22.87 23.9263 22.1423 24.5831 21.2661 24.681C19.1905 24.9127 17.0909 24.914 14.9991 24.9127C12.9081 24.914 10.8074 24.9127 8.73238 24.681C7.85616 24.5831 7.12818 23.9266 6.92378 23.0366C6.63192 21.7694 6.63192 20.3856 6.63192 19.0806C6.63192 17.7757 6.6356 16.3921 6.92716 15.1246C7.13187 14.2346 7.85923 13.5778 8.73545 13.4802C10.8107 13.2485 12.9112 13.2473 15.0028 13.2485C17.0937 13.2473 19.1942 13.2485 21.2695 13.4802C22.1457 13.5781 22.8737 14.2346 23.079 15.1246C23.3699 16.3921 23.3681 17.7757 23.3681 19.0806C23.3681 20.3856 23.3669 21.7694 23.075 23.0366Z" fill="white"/>
<path id="Vector_6" d="M20.6148 16.894C20.0974 16.894 19.6956 17.084 19.4035 17.4661C19.1889 17.7485 19.091 18.1849 19.091 18.7812V20.7365C19.091 21.3297 19.2006 21.7692 19.416 22.0488C19.7079 22.43 20.1109 22.6206 20.64 22.6206C21.1682 22.6206 21.5828 22.4208 21.8627 22.0154C21.9855 21.8361 22.0653 21.6333 22.099 21.4092C22.1085 21.308 22.1205 21.0836 22.1205 20.7574V20.6104H21.089C21.089 21.0155 21.0758 21.2404 21.0669 21.2954C21.0092 21.5658 20.8637 21.7008 20.6148 21.7008C20.2674 21.7008 20.0974 21.443 20.0974 20.9268V19.9367H22.1205V18.7806C22.1205 18.1843 22.0195 17.7479 21.8075 17.4655C21.5248 17.0843 21.1224 16.894 20.6148 16.894ZM21.1096 19.0952H20.098V18.5786C20.098 18.0624 20.2677 17.8043 20.6056 17.8043C20.9401 17.8043 21.1096 18.0627 21.1096 18.5786V19.0952Z" fill="white"/>
</g>
</g>
</g>
<defs>
<clipPath id="clip0_117_74">
<rect width="30" height="30" fill="white"/>
</clipPath>
</defs>
</svg>
